<svg width="49" height="48" viewBox="0 0 49 48" fill="none" xmlns="http://www.w3.org/2000/svg">
<path d="M48.3557 23.9967C48.3557 10.7417 37.6274 0 24.3931 0C11.1588 0 0.430542 10.745 0.430542 23.9967C0.430542 37.2516 11.1588 47.9967 24.3931 47.9967C37.6274 48 48.3557 37.2516 48.3557 23.9967Z" fill="#395196"/>
<path d="M26.5054 18.3149V16.0422C26.5054 14.936 27.2428 14.6753 27.76 14.6753C28.2773 14.6753 30.9468 14.6753 30.9468 14.6753V9.80577L26.5587 9.78906C21.6902 9.78906 20.5856 13.422 20.5856 15.7481V18.3149H17.7726V23.9999H20.6123C20.6123 30.4436 20.6123 38.2141 20.6123 38.2141H26.2885C26.2885 38.2141 26.2885 30.3634 26.2885 23.9999H30.4963L31.0136 18.3149H26.5054Z" fill="white"/>
</svg>
