<svg width="49" height="48" viewBox="0 0 49 48" fill="none" xmlns="http://www.w3.org/2000/svg">
<g clip-path="url(#clip0)">
<path d="M16.0203 44C34.0921 44 43.9767 29 43.9767 16C43.9767 15.56 43.9767 15.14 43.9567 14.7C45.8737 13.33 47.5511 11.6 48.849 9.62C47.0918 10.4 45.1948 10.92 43.2079 11.17C45.2447 9.95 46.8022 8.02 47.5311 5.72C45.6341 6.85 43.5373 7.67 41.2909 8.12C39.4837 6.2 36.9576 5 34.1221 5C28.7005 5 24.2974 9.4 24.2974 14.84C24.2974 15.62 24.3773 16.37 24.547 17.09C16.3798 16.67 9.14109 12.75 4.27869 6.79C3.44 8.25 2.96075 9.94 2.96075 11.74C2.96075 15.16 4.69803 18.17 7.35388 19.94C5.72643 19.89 4.21878 19.44 2.89086 18.71C2.89086 18.75 2.89086 18.79 2.89086 18.83C2.89086 23.6 6.28555 27.58 10.7785 28.48C9.94983 28.7 9.08118 28.82 8.18259 28.82C7.55357 28.82 6.93454 28.76 6.33547 28.64C7.58352 32.54 11.2278 35.4 15.5211 35.48C12.1564 38.12 7.91301 39.68 3.3102 39.68C2.51145 39.68 1.73267 39.65 0.963867 39.56C5.2971 42.38 10.459 44 16.0203 44Z" fill="#1DA1F2"/>
</g>
<defs>
<clipPath id="clip0">
<path d="M0.943848 0H48.869V48H0.943848V0Z" fill="white"/>
</clipPath>
</defs>
</svg>
