<svg width="49" height="48" viewBox="0 0 49 48" fill="none" xmlns="http://www.w3.org/2000/svg">
<path d="M35.0119 14.4539C33.833 13.1713 32.3981 12.0971 30.7478 11.3222L20.497 39.5292C20.1004 39.4176 19.7049 39.2901 19.3107 39.1467C10.8743 36.0714 6.50857 26.6948 9.57903 18.2452C11.1339 13.9683 14.2998 10.7373 18.1415 8.98633L20.5693 2.30733C20.8753 1.46617 21.3344 0.691228 21.9147 0.0205078C21.7335 0.0438052 21.5536 0.0683288 21.3724 0.0953047V0.0940785C12.8882 1.3595 5.35287 7.163 2.29342 15.8591C-2.08333 28.3023 4.31469 41.8504 16.6932 46.3603C18.3668 46.9697 20.0636 47.3804 21.7593 47.6048C23.9715 47.8979 26.0858 46.5859 26.8485 44.4854L35.9852 19.3426C36.5986 17.6591 36.224 15.7732 35.0119 14.4539Z" fill="#338BD9"/>
<path d="M47.4663 31.7848C51.8431 19.3416 45.4438 5.79474 33.0653 1.28486C31.3917 0.675447 29.6949 0.264677 27.9993 0.0402859C25.787 -0.252771 23.6727 1.05924 22.91 3.15969L13.7733 28.3025C13.1612 29.986 13.537 31.8719 14.7478 33.1913C15.9268 34.4738 17.3616 35.548 19.0119 36.3229L29.2627 8.1159C29.6594 8.22748 30.0548 8.35501 30.449 8.49847C38.8854 11.5737 43.2512 20.9503 40.1807 29.3999C38.6259 33.6768 35.4599 36.9078 31.6182 38.6588L29.1905 45.339C28.8844 46.1802 28.4253 46.9551 27.845 47.6258C28.0262 47.6025 28.2062 47.578 28.3874 47.551C36.8728 46.2856 44.4081 40.4809 47.4663 31.7848Z" fill="#338BD9"/>
</svg>
