<svg width="49" height="48" viewBox="0 0 49 48" fill="none" xmlns="http://www.w3.org/2000/svg">
<g clip-path="url(#clip0)">
<path d="M47.3838 12.4C48.3822 16.25 48.3822 24.28 48.3822 24.28C48.3822 24.28 48.3822 32.31 47.3838 36.16C46.8246 38.29 45.2072 39.96 43.1404 40.53C39.3963 41.56 24.4197 41.56 24.4197 41.56C24.4197 41.56 9.44305 41.56 5.6989 40.53C3.63213 39.96 2.00467 38.29 1.45553 36.16C0.457092 32.31 0.457092 24.28 0.457092 24.28C0.457092 24.28 0.457092 16.25 1.45553 12.4C2.01466 10.27 3.63213 8.6 5.6989 8.03C9.44305 7 24.4197 7 24.4197 7C24.4197 7 39.3963 7 43.1404 8.03C45.2072 8.6 46.8346 10.27 47.3838 12.4ZM19.6271 31.96L33.0462 24.28L19.6271 16.6V31.96Z" fill="#FF0000"/>
</g>
<defs>
<clipPath id="clip0">
<path d="M0.457092 0H48.3822V48H0.457092V0Z" fill="white"/>
</clipPath>
</defs>
</svg>
